<?xml version="1.0" encoding="utf-8"?>
<svg version="1.1" id="Layer_1" xmlns="http://www.w3.org/2000/svg" xmlns:xlink="http://www.w3.org/1999/xlink" x="0px" y="0px"
	 viewBox="0 0 32 25.3" style="enable-background:new 0 0 32 25.3;" xml:space="preserve">
<style type="text/css">
	.st0{fill:#DC382D;}
</style>
<path class="st0" d="M29.3,0.2H2.7c-1.4,0-2.5,1.1-2.5,2.5v13.5c0,1.4,1.1,2.5,2.5,2.5h26.6c1.4,0,2.5-1.1,2.5-2.5V2.7
	C31.8,1.3,30.7,0.2,29.3,0.2z M30.8,16.2c0,0.9-0.7,1.5-1.5,1.5H2.7c-0.8,0-1.5-0.7-1.5-1.5V2.7c0-0.8,0.7-1.5,1.5-1.5h26.6
	c0.8,0,1.5,0.7,1.5,1.5V16.2z M11.6,4.7c-2.4,0-4.4,2-4.4,4.4V12c0,2.4,2,4.4,4.4,4.4c2.4,0,4.4-2,4.4-4.4V9.1
	C16,6.7,14,4.7,11.6,4.7z M15,12c0,1.8-1.6,3.4-3.4,3.4c-1.9,0-3.4-1.5-3.4-3.4V9.1c0-1.9,1.5-3.4,3.4-3.4S15,7.3,15,9.1V12z
	 M22.3,24.3L21.6,25c-5.5-5.5-14.5-5.5-20,0l-0.7-0.7C6.8,18.4,16.4,18.4,22.3,24.3z M24.2,6.3l0.9,0.4l-2.3,6l-0.9-0.4L24.2,6.3z
	 M27.9,9.1v1c-0.2,0-0.4,0.2-0.4,0.5v0.8c0,0.8-0.7,1.4-1.4,1.4v-1c0.2,0,0.4-0.2,0.4-0.4v-0.8c0-0.4,0.1-0.7,0.4-1
	c-0.2-0.3-0.4-0.6-0.4-1V7.8c0-0.2-0.2-0.4-0.4-0.4v-1c0.8,0,1.4,0.6,1.4,1.4v0.8C27.5,8.9,27.7,9.1,27.9,9.1z M21.1,6.3v1
	c-0.2,0-0.4,0.2-0.4,0.4v0.8c0,0.4-0.1,0.7-0.4,1c0.2,0.3,0.4,0.6,0.4,1v0.8c0,0.2,0.2,0.4,0.4,0.4v1c-0.8,0-1.4-0.6-1.4-1.4v-0.8
	c0-0.2-0.2-0.5-0.4-0.5V9c0.2,0,0.4-0.2,0.4-0.5V7.7C19.6,6.9,20.3,6.3,21.1,6.3z"/>
</svg>