<?xml version="1.0" encoding="utf-8"?>
<!-- Generator: Adobe Illustrator 23.1.1, SVG Export Plug-In . SVG Version: 6.00 Build 0)  -->
<svg version="1.1" id="Layer_1" xmlns="http://www.w3.org/2000/svg" xmlns:xlink="http://www.w3.org/1999/xlink" x="0px" y="0px"
	 viewBox="0 0 32 27.1" style="enable-background:new 0 0 32 27.1;" xml:space="preserve">
<style type="text/css">
	.st0{fill:#DC382D;}
</style>
<path class="st0" d="M30.9,4.3V23c0,1.9-1.5,3.3-3.3,3.3h-22c-1.8,0-3.3-1.5-3.3-3.3V7.7h1V23c0,1.3,1,2.3,2.3,2.3h22
	c1.3,0,2.3-1,2.3-2.3V4.3c0-1.3-1-2.3-2.3-2.3H6.4V1h21.2C29.4,1,30.9,2.5,30.9,4.3z M2.8,6.9c-1.1,0-2-0.9-2-2c0-1.1,0.9-2,2-2
	s2,0.9,2,2C4.7,6.1,3.8,6.9,2.8,6.9z M2.8,5.9c0.5,0,1-0.4,1-1c0-0.5-0.4-1-1-1s-1,0.4-1,1C1.8,5.5,2.2,5.9,2.8,5.9z M7.3,16.2
	c0.2-0.1,0.7-0.3,1.3-0.5c-0.6-0.3-1.1-0.5-1.3-0.6c-0.5-0.3-1.1-0.6-1.1-1.1c0-0.6,0.8-0.9,1.1-1c0.2-0.1,0.8-0.3,1.5-0.6
	c-0.7-0.3-1.2-0.5-1.5-0.6c-0.5-0.3-1.1-0.6-1.1-1.1c0-0.6,0.8-0.9,1.1-1C7.7,9.4,8.7,9,10,8.6c2.1-0.8,4.6-1.8,5.3-2.1
	c1.3-0.5,1.9-0.5,3-0.1c0.6,0.2,2.3,0.9,4,1.6c1.5,0.6,2.9,1.2,3.4,1.3c0.6,0.2,1.1,0.5,1.1,1c0,0.5-0.5,0.9-1,1.2
	c-0.3,0.1-0.8,0.4-1.5,0.7c0.6,0.3,1.1,0.4,1.4,0.5c0.6,0.2,1.1,0.5,1.1,1c0,0.5-0.5,0.9-1,1.2c-0.2,0.1-0.7,0.4-1.3,0.6
	c0.6,0.2,1,0.4,1.3,0.5c0.6,0.2,1.1,0.5,1.1,1c0,0.5-0.5,0.9-1,1.2c-0.5,0.3-2,0.9-3.6,1.6c-1.7,0.7-3.4,1.5-4,1.8
	C17.6,21.8,17,22,16.5,22c-0.5,0-0.9-0.1-1.4-0.4c-0.4-0.2-2.1-0.9-3.8-1.6c-1.7-0.7-3.4-1.4-4-1.7c-0.5-0.3-1.1-0.6-1.1-1.1
	C6.2,16.6,7,16.3,7.3,16.2z M7.7,10.8c0.5,0.2,2.3,1,4,1.7c1.7,0.7,3.3,1.4,3.8,1.6c0.7,0.3,1.2,0.4,2.3-0.1
	c0.6-0.3,2.4-1.1,4.1-1.8c1.5-0.6,3.1-1.3,3.6-1.6l0,0c0.2-0.1,0.3-0.1,0.3-0.2c-0.1,0-0.2-0.1-0.3-0.1C25,10.1,23.5,9.5,22,8.9
	c-1.7-0.7-3.5-1.4-4-1.6C17.1,7,16.8,7,15.7,7.4c-0.8,0.3-3.3,1.3-5.3,2.1c-1.2,0.5-2.3,0.9-2.7,1c-0.1,0-0.2,0.1-0.3,0.1
	C7.4,10.7,7.6,10.8,7.7,10.8z M7.7,14.2c0.5,0.2,2.3,1,4,1.7c1.7,0.7,3.4,1.4,3.8,1.6c0.7,0.3,1.2,0.4,2.3-0.1
	c0.6-0.3,2.4-1.1,4.1-1.8c1.5-0.6,3.1-1.3,3.6-1.6c0.2-0.1,0.3-0.1,0.4-0.2c-0.1,0-0.2-0.1-0.3-0.1c-0.4-0.1-1.3-0.5-2.4-0.9
	c-0.3,0.1-0.6,0.2-0.9,0.4c-1.7,0.7-3.4,1.5-4,1.8c-0.7,0.4-1.2,0.5-1.8,0.5c-0.5,0-0.9-0.1-1.4-0.4c-0.4-0.2-2.1-0.9-3.8-1.6
	c-0.4-0.2-0.8-0.3-1.2-0.5c-1.1,0.4-2.1,0.8-2.4,1c-0.1,0-0.2,0.1-0.3,0.1C7.4,14.1,7.6,14.1,7.7,14.2z M7.4,17.3
	c0.1,0.1,0.2,0.1,0.4,0.2c0.5,0.2,2.3,1,3.9,1.7c1.7,0.7,3.4,1.4,3.8,1.6c0.7,0.3,1.2,0.4,2.3-0.1c0.6-0.3,2.4-1.1,4.1-1.8
	c1.5-0.6,3.1-1.3,3.6-1.6c0.2-0.1,0.3-0.1,0.4-0.2c-0.1,0-0.2-0.1-0.3-0.1c-0.3-0.1-1.2-0.5-2.2-0.9c-0.3,0.1-0.7,0.3-1,0.4
	c-1.7,0.7-3.4,1.5-4,1.8c-0.7,0.4-1.2,0.5-1.8,0.5c-0.5,0-0.9-0.1-1.4-0.4c-0.4-0.2-2.1-0.9-3.8-1.6c-0.5-0.2-0.9-0.4-1.3-0.6
	l-0.2,0.1c-1,0.4-1.8,0.7-2.1,0.8C7.5,17.2,7.4,17.2,7.4,17.3z"/>
</svg>