<?xml version="1.0" encoding="utf-8"?>
<svg version="1.1" id="Layer_1" xmlns="http://www.w3.org/2000/svg" xmlns:xlink="http://www.w3.org/1999/xlink" x="0px" y="0px"
	 viewBox="0 0 32 29.9" style="enable-background:new 0 0 32 29.9;" xml:space="preserve">
<style type="text/css">
	.st0{fill:#DC382D;}
</style>
<path class="st0" d="M30.5,15c0,7.8-6.4,14.2-14.2,14.2S2.1,22.8,2.1,15c0-3.7,1.5-7.4,4.2-10l0.7,0.7C4.5,8.1,3.1,11.5,3.1,15
	c0,7.3,5.9,13.2,13.2,13.2c7.3,0,13.2-5.9,13.2-13.2c0-7.3-5.9-13.2-13.2-13.2v-1C24.1,0.8,30.5,7.2,30.5,15z M6.9,3
	c0-1.2,1-2.1,2.1-2.1c1.2,0,2.1,1,2.1,2.1c0,1.2-1,2.1-2.1,2.1C7.9,5.2,6.9,4.2,6.9,3z M7.9,3c0,0.6,0.5,1.1,1.1,1.1
	c0.6,0,1.1-0.5,1.1-1.1c0-0.6-0.5-1.1-1.1-1.1C8.4,1.9,7.9,2.4,7.9,3z M10.3,21.3h1v-7.8h-1V21.3z M16.8,8h-1v13.3h1V8z M21.1,10.4
	v10.9h1V10.4H21.1z"/>
</svg>