<?xml version="1.0" encoding="utf-8"?>
<svg version="1.1" id="Layer_1" xmlns="http://www.w3.org/2000/svg" xmlns:xlink="http://www.w3.org/1999/xlink" x="0px" y="0px"
	 viewBox="0 0 32 32" style="enable-background:new 0 0 32 32;" xml:space="preserve">
<style type="text/css">
	.st0{fill:#DC382D;}
</style>
<title>redis 32</title>
<path class="st0" d="M29.5,22.7l-2.2-1.2l1.7-0.7c0.5-0.2,0.8-0.8,0.8-1.3c0-0.5-0.4-1-0.8-1.1l-11.1-4.8c-1.2-0.6-2.5-0.6-3.8,0
	L3,18.2c-0.5,0.2-0.8,0.8-0.8,1.3c0,0.5,0.3,1,0.8,1.1l1.6,0.7l-2.2,1.2c-0.4,0.2-0.6,0.6-0.6,1.1c0,0.5,0.2,1,0.6,1.3l11.2,6.2
	c0.7,0.4,1.6,0.6,2.4,0.6c0.8,0,1.6-0.2,2.4-0.6L29.5,25c0.4-0.2,0.6-0.6,0.6-1.1C30.1,23.4,29.9,23,29.5,22.7z M3.3,19.8
	c-0.1,0-0.2-0.2-0.2-0.3c0-0.1,0-0.3,0.2-0.4l11.1-4.8l0,0c0.5-0.2,1-0.3,1.5-0.3c0.5,0,1,0.1,1.5,0.3l11.1,4.8
	c0.1,0,0.2,0.2,0.2,0.3c0,0.1,0,0.3-0.2,0.4l-2.4,1l-7.8-4.3c-1.4-0.8-3.2-0.8-4.7,0l-7.8,4.3L3.3,19.8z M25,21.3l-7.6,3.3
	c-0.9,0.4-2,0.4-3,0l-7.6-3.3l7.2-4h0c0.6-0.3,1.3-0.5,1.9-0.5c0.6,0,1.3,0.2,1.9,0.5L25,21.3z M29,24.1l-11.2,6.2
	c-1.2,0.7-2.6,0.7-3.8,0L2.9,24.2c-0.1-0.1-0.2-0.3-0.2-0.4c0-0.1,0-0.2,0.1-0.3l2.9-1.6l8.3,3.6c0.6,0.2,1.3,0.4,1.9,0.4
	c0.6,0,1.3-0.1,1.8-0.4l8.3-3.6l2.8,1.6c0.1,0.1,0.2,0.3,0.2,0.4C29.1,23.9,29.1,24.1,29,24.1z M9,11.7h3.6c0.7,0,1.2-0.6,1.2-1.2
	V6.9c0-0.7-0.6-1.2-1.2-1.2H9c-0.7,0-1.2,0.6-1.2,1.2v3.6C7.7,11.1,8.3,11.7,9,11.7z M8.7,6.9c0-0.2,0.1-0.2,0.2-0.2h3.6
	c0.2,0,0.2,0.1,0.2,0.2v3.6c0,0.2-0.1,0.2-0.2,0.2H9c-0.2,0-0.2-0.1-0.2-0.2V6.9z M20.2,7.2h3.6c0.7,0,1.2,0.6,1.2,1.2V12
	c0,0.7-0.6,1.2-1.2,1.2h-3.6c-0.7,0-1.2-0.6-1.2-1.2V8.4C19,7.7,19.5,7.2,20.2,7.2z M15.8,6.2h3.6c0.7,0,1.2-0.6,1.2-1.2V1.4
	c0-0.7-0.6-1.2-1.2-1.2h-3.6c-0.7,0-1.2,0.6-1.2,1.2V5C14.6,5.7,15.1,6.2,15.8,6.2z M15.6,1.4c0-0.2,0.1-0.2,0.2-0.2h3.6
	c0.2,0,0.2,0.1,0.2,0.2V5c0,0.2-0.1,0.2-0.2,0.2h-3.6c-0.2,0-0.2-0.1-0.2-0.2V1.4z"/>
</svg>