<?xml version="1.0" encoding="utf-8"?>
<svg version="1.1" id="Layer_1" xmlns="http://www.w3.org/2000/svg" xmlns:xlink="http://www.w3.org/1999/xlink" x="0px" y="0px"
	 viewBox="0 0 32 32" style="enable-background:new 0 0 32 32;" xml:space="preserve">
<style type="text/css">
	.st0{fill:#DC382D;}
</style>
<path class="st0" d="M28.7,7c0.5-0.4,0.8-0.9,0.8-1.6c0-1.1-0.9-2-2-2c-0.6,0-1.1,0.2-1.5,0.6c-2.8-2.4-6.4-3.7-10.1-3.7
	C7.3,0.4,0.3,7.4,0.3,16c0,8.6,7,15.7,15.7,15.7s15.7-7,15.7-15.7C31.6,12.8,30.6,9.6,28.7,7z M27.5,4.4c0.6,0,1,0.5,1,1s-0.5,1-1,1
	s-1-0.5-1-1S26.9,4.4,27.5,4.4z M15.9,30.7C7.8,30.7,1.3,24.1,1.3,16S7.8,1.4,15.9,1.4c3.5,0,6.9,1.3,9.6,3.6c0,0.2-0.1,0.3-0.1,0.5
	c0,1.1,0.9,2,2,2c0.1,0,0.2,0,0.3,0c1.8,2.5,2.8,5.5,2.8,8.6C30.6,24.1,24,30.7,15.9,30.7z M20.9,10c-0.4,0-0.8,0.1-1.1,0.3l0,0
	c-1.2-0.8-2.5-1.2-3.9-1.2c-3.8,0-7,3.1-7,7c0,3.8,3.1,7,7,7s7-3.1,7-7c0-0.9-0.2-1.8-0.5-2.7c0.3-0.4,0.5-0.8,0.5-1.4
	C22.9,10.9,22,10,20.9,10z M20.9,11c0.6,0,1,0.5,1,1s-0.5,1-1,1s-1-0.5-1-1S20.3,11,20.9,11z M15.9,22c-3.3,0-6-2.7-6-6s2.7-6,6-6
	c1.1,0,2.2,0.3,3.2,0.9c-0.2,0.3-0.3,0.6-0.3,1c0,1.1,0.9,2,2,2c0.2,0,0.4,0,0.6-0.1c0.3,0.7,0.4,1.4,0.4,2.1
	C21.9,19.3,19.2,22,15.9,22z M26.1,8.7c0-1.1-0.9-2-2-2c-0.4,0-0.8,0.1-1.1,0.3c-2-1.6-4.5-2.5-7.1-2.5C9.6,4.5,4.4,9.7,4.4,16
	c0,6.4,5.2,11.5,11.5,11.5c6.4,0,11.5-5.2,11.5-11.5c0-2.2-0.6-4.3-1.8-6.1C26,9.6,26.1,9.1,26.1,8.7z M24.1,7.6c0.6,0,1,0.5,1,1
	s-0.5,1-1,1c-0.6,0-1-0.5-1-1S23.6,7.6,24.1,7.6z M15.9,26.6c-5.8,0-10.5-4.7-10.5-10.5c0-5.8,4.7-10.5,10.5-10.5
	c2.3,0,4.6,0.8,6.4,2.2c-0.2,0.3-0.2,0.6-0.2,0.9c0,1.1,0.9,2,2,2c0.3,0,0.5-0.1,0.8-0.2c1,1.7,1.6,3.6,1.6,5.5
	C26.5,21.8,21.7,26.6,15.9,26.6z"/>
</svg>
