<?xml version="1.0" encoding="utf-8"?>
<svg version="1.1" id="Logo" xmlns="http://www.w3.org/2000/svg" xmlns:xlink="http://www.w3.org/1999/xlink" x="0px" y="0px"
	 viewBox="0 0 32 32" style="enable-background:new 0 0 32 32;" xml:space="preserve">
<style type="text/css">
	.st0{fill:#DC382D;}
</style>
<path class="st0" d="M30.3,9.6c0-1.1-0.6-2.2-1.6-2.7L17.6,0.4c-1-0.6-2.2-0.6-3.2,0L3.3,6.8c-1,0.6-1.6,1.6-1.6,2.7v12.8
	c0,0.6,0.2,1.2,0.5,1.7c0,0,0,0,0,0.1s0.1,0.1,0.1,0.1c0.2,0.3,0.5,0.6,0.9,0.8l11.1,6.4c1,0.6,2.2,0.6,3.2,0L28.6,25
	c0.4-0.2,0.7-0.5,0.9-0.8c0.1,0,0.1-0.1,0.1-0.1s0,0,0-0.1c0.3-0.5,0.5-1.1,0.5-1.7L30.3,9.6L30.3,9.6z M28.2,7.7
	c0.7,0.4,1.1,1.1,1.1,1.9v12.8c0,0.1,0,0.1,0,0.2L16.9,1.2c0.1,0,0.1,0,0.2,0.1L28.2,7.7z M3.4,23.6L7.8,16c0,0.1,0,0.2,0,0.3
	c0,3.2,1.8,6,4.7,7.4L3.4,23.6L3.4,23.6z M16,1.7l4.3,7.5c-2.6-1.7-6-1.7-8.7,0L16,1.7z M15.9,22.4l-6.3-6.3l6.3-6.3l6.3,6.3
	L15.9,22.4z M16.4,9c3.6,0.2,6.5,3.1,6.8,6.8L16.4,9z M8.8,15.6c0.3-3.6,3.1-6.4,6.7-6.7L8.8,15.6z M15.4,23.4
	c-3.5-0.3-6.4-3.1-6.6-6.6L15.4,23.4z M23.2,16.6c-0.2,3.6-3.1,6.5-6.7,6.7L23.2,16.6z M24.2,16.2c0-0.1,0-0.2,0-0.3l4.4,7.7h-9.1
	C22.4,22.2,24.2,19.3,24.2,16.2L24.2,16.2z M2.7,9.6c0-0.8,0.4-1.5,1.1-1.9l11.1-6.4c0.1,0,0.1-0.1,0.2-0.1L2.7,22.6
	c0-0.1,0-0.1,0-0.2V9.6L2.7,9.6z M17.1,30.7c-0.7,0.4-1.5,0.4-2.2,0L4.3,24.6h23.5L17.1,30.7z"/>
</svg>
