<?xml version="1.0" encoding="utf-8"?>
<svg version="1.1" id="layer_1" xmlns="http://www.w3.org/2000/svg" xmlns:xlink="http://www.w3.org/1999/xlink" x="0px" y="0px"
	 viewBox="0 0 32 32" style="enable-background:new 0 0 32 32;" xml:space="preserve">
<style type="text/css">
	.st0{fill:#DC382D;}
</style>
<path class="st0" d="M27.3,14.1c-1,0-2-0.6-2.4-1.6l0-0.2c-0.4-1-0.2-2.2,0.6-3L25.8,9l-2.7-2.7l-0.3,0.2c-0.6,0.4-2,1.3-3,0.7
	l-0.2-0.1h0c-1-0.4-1.6-1.4-1.6-2.5V4.1h-3.3l-0.5,0.1v0.5c0,1-0.6,2-1.6,2.4l-0.2,0c-1.1,0.4-2.2,0.2-3-0.6L9,6.3L6.4,9l0.3,0.4
	c0.8,0.8,1,2,0.6,3l0,0.2c-0.4,1-1.4,1.6-2.5,1.6H4.2v3.3l0.1,0.5h0.5c1,0,2,0.6,2.4,1.6l0,0.2c0.4,1.1,0.2,2.2-0.6,3L6.4,23L9,25.6
	l0.4-0.3c0.8-0.8,2-1,3-0.6l0.2,0c1,0.4,1.6,1.4,1.6,2.5v0.5h3.3l0.5-0.1v-0.5c0-1,0.6-2,1.6-2.4l0.2,0c1.1-0.4,2.2-0.2,3,0.6
	l0.4,0.4l2.7-2.7l-0.3-0.4c-0.8-0.8-1-2-0.6-3l0-0.2c0.4-0.9,1.4-1.6,2.5-1.6h0.5v-3.3l-0.1-0.5H27.3z M26.9,16.9
	c-1.3,0.2-2.5,1-3,2.3l0,0.1c-0.5,1.2-0.3,2.5,0.5,3.6L23,24.3c-1-0.8-2.3-1-3.6-0.5l-0.2,0c-1.2,0.5-2.1,1.7-2.3,3h-1.9
	c-0.2-1.3-1-2.5-2.3-3l-0.1,0c-1.2-0.5-2.5-0.3-3.6,0.5l-1.3-1.3c0.8-1,1-2.3,0.5-3.6l0-0.2c-0.5-1.2-1.7-2.1-3-2.3V15
	c1.3-0.2,2.5-1,3-2.3l0-0.1c0.5-1.2,0.3-2.5-0.5-3.6l1.3-1.3c1,0.8,2.3,1,3.6,0.5l0.2,0c1.2-0.5,2.1-1.7,2.3-3H17
	c0.2,1.3,1,2.5,2.3,3l0.1,0C20.7,8.8,22.1,8,23,7.5L24.4,9c-0.8,1-1,2.4-0.6,3.6l0,0.2c0.5,1.2,1.7,2.1,3,2.3V16.9z M26.9,0.2H5.1
	c-2.7,0-4.9,2.2-4.9,4.9v21.8c0,2.7,2.2,4.9,4.9,4.9h21.8c2.7,0,4.9-2.2,4.9-4.9V5.1C31.8,2.4,29.6,0.2,26.9,0.2z M30.8,26.9
	c0,2.1-1.7,3.9-3.9,3.9H5.1c-2.1,0-3.9-1.7-3.9-3.9V5.1c0-2.1,1.7-3.9,3.9-3.9h21.8c2.1,0,3.9,1.7,3.9,3.9V26.9z M16,12
	c-2.2,0-4,1.8-4,4s1.8,4,4,4c2.2,0,4-1.8,4-4S18.2,12,16,12z M16,18.9c-1.6,0-3-1.3-3-3s1.3-3,3-3c1.6,0,3,1.3,3,3
	S17.7,18.9,16,18.9z"/>
</svg>